<svg xmlns="http://www.w3.org/2000/svg" xmlns:xlink="http://www.w3.org/1999/xlink" version="1.1" x="0px" y="0px" viewBox="0 0 100 125" style="enable-background:new 0 0 100 100;" xml:space="preserve"><path d="M96.1507339,88.2518387L77.937355,70.0384598c8.7088013-11.4071007,10.9955902-26.4680901,6.0655746-39.9461441  C79.0729141,16.6148949,67.6072006,6.585124,53.5943413,3.4903724C39.5814857,0.3955865,24.9569778,4.6637468,14.8106394,14.8113289  S0.3949233,39.5831261,3.4896781,53.5950203c3.0947845,14.0128517,13.124526,25.4785652,26.6019535,30.4085884  c13.4774227,4.9300079,28.5384121,2.6431885,39.9461517-6.0655823l18.2133865,18.2133789  c1.4423141,1.2359161,3.4124298,1.6562271,5.2339325,1.1183243c1.8213348-0.5391541,3.2462158-1.9639435,3.7851791-3.7851868  c0.5378952-1.8213348,0.1175842-3.7915878-1.1183167-5.2339249L96.1507339,88.2518387z M44.5640259,75.3899155  c-8.1746521,0-16.0143299-3.2475052-21.7948952-9.0277634c-5.7805672-5.7805595-9.0277538-13.6199226-9.0277538-21.7948875  s3.247509-16.0143204,9.0277538-21.7948875c5.7805653-5.7805653,13.6199303-9.02775,21.7948952-9.02775  s16.014328,3.2475071,21.7948914,9.02775c5.7805634,5.7805672,9.0277557,13.6199303,9.0277557,21.7948875  s-3.2475052,16.014328-9.0277557,21.7948875C60.5783539,72.1427231,52.738987,75.3899155,44.5640259,75.3899155z"/><text x="0" y="115" fill="#000000" font-size="5px" font-weight="bold" font-family="'Helvetica Neue', Helvetica, Arial-Unicode, Arial, Sans-serif">Created by sapphire savage</text><text x="0" y="120" fill="#000000" font-size="5px" font-weight="bold" font-family="'Helvetica Neue', Helvetica, Arial-Unicode, Arial, Sans-serif">from the Noun Project</text></svg>