<svg xmlns="http://www.w3.org/2000/svg" xmlns:xlink="http://www.w3.org/1999/xlink" viewBox="0 0 100 125" version="1.1" x="0px" y="0px"><title>15</title><desc>Created with Sketch.</desc><g stroke="none" stroke-width="1" fill="none" fill-rule="evenodd"><g fill="#000000"><path d="M62.3538115,89.7557377 L76.3441803,89.7557377 C78.9784016,89.7557377 81.1214344,87.6127049 81.1214344,84.9786885 L81.1214344,47.6860656 C81.1214344,46.9016393 81.5691803,46.1860656 82.2747131,45.8432377 C82.9798361,45.5002049 83.8191803,45.589959 84.4365984,46.0745902 L89.802377,50.2897541 C90.584959,50.9045082 91.559959,51.1780738 92.5482787,51.0590164 C93.5363934,50.9403689 94.4191803,50.4438525 95.0339344,49.6612705 C96.3031967,48.0456967 96.0212295,45.6985656 94.4054508,44.4295082 L81.9046311,34.6096311 C81.4101639,34.2213115 81.1214344,33.6270492 81.1214344,32.9981557 L81.1214344,17.8793033 L76.7952049,17.8793033 L76.7952049,26.3805328 C76.7952049,27.164959 76.3472541,27.8805328 75.6419262,28.2235656 C74.9363934,28.5661885 74.0970492,28.4766393 73.480041,27.9920082 L53.57,12.3522541 C51.4460246,10.6838115 48.4790164,10.6838115 46.355041,12.3522541 L5.51959016,44.4295082 C3.90401639,45.6985656 3.62204918,48.0456967 4.89131148,49.6612705 C5.50606557,50.4438525 6.38885246,50.9403689 7.37696721,51.0590164 C8.36446721,51.1776639 9.34008197,50.9045082 10.1230738,50.2897541 L15.4888525,46.0745902 C16.1058607,45.589959 16.9452049,45.5 17.6507377,45.8432377 C18.3560656,46.1860656 18.8040164,46.9016393 18.8040164,47.6860656 L18.8040164,84.9786885 C18.8040164,87.6127049 20.9470492,89.7557377 23.5808607,89.7557377 L37.5714344,89.7557377 L37.5714344,72.7022541 C37.5714344,65.8696721 43.130041,60.3110656 49.962623,60.3110656 C56.7952049,60.3110656 62.3538115,65.8696721 62.3538115,72.7022541 L62.3538115,89.7557377 Z M76.3441803,93.8540984 L60.3046311,93.8540984 C59.1730738,93.8540984 58.2554508,92.9366803 58.2554508,91.804918 L58.2554508,72.7022541 C58.2554508,68.1295082 54.5353689,64.4094262 49.962623,64.4094262 C45.389877,64.4094262 41.6697951,68.1295082 41.6697951,72.7022541 L41.6697951,91.804918 C41.6697951,92.9366803 40.7521721,93.8540984 39.6206148,93.8540984 L23.5808607,93.8540984 C18.6870082,93.8540984 14.7056557,89.872541 14.7056557,84.9786885 L14.7056557,51.9014344 L12.6548361,53.5125 C11.0111885,54.8036885 8.9642623,55.377459 6.88803279,55.1280738 C4.81303279,54.8788934 2.95913934,53.8364754 1.66815574,52.1928279 C-0.996803279,48.8002049 -0.405,43.8717213 2.98782787,41.2065574 L43.8232787,9.12930328 C47.4382377,6.29036885 52.4872131,6.29016393 56.1015574,9.12909836 L72.6968443,22.1651639 L72.6968443,15.830123 C72.6968443,14.6983607 73.6142623,13.7809426 74.7460246,13.7809426 L83.1706148,13.7809426 C84.3021721,13.7809426 85.2197951,14.6983607 85.2197951,15.830123 L85.2197951,32.0020492 L96.937418,41.2065574 C100.330041,43.8717213 100.922049,48.8002049 98.2568852,52.1928279 C96.9659016,53.8364754 95.1120082,54.8788934 93.0370082,55.1280738 C90.9609836,55.377459 88.9138525,54.8034836 87.2706148,53.5125 L85.2197951,51.9014344 L85.2197951,84.9786885 C85.2197951,89.872541 81.2382377,93.8540984 76.3441803,93.8540984 L76.3441803,93.8540984 Z"/></g></g><text x="0" y="115" fill="#000000" font-size="5px" font-weight="bold" font-family="'Helvetica Neue', Helvetica, Arial-Unicode, Arial, Sans-serif">Created by AomAm</text><text x="0" y="120" fill="#000000" font-size="5px" font-weight="bold" font-family="'Helvetica Neue', Helvetica, Arial-Unicode, Arial, Sans-serif">from the Noun Project</text></svg>