<svg xmlns="http://www.w3.org/2000/svg" xmlns:xlink="http://www.w3.org/1999/xlink" xmlns:serif="http://www.serif.com/" viewBox="0 0 32 40" version="1.1" xml:space="preserve" style="" x="0px" y="0px" fill-rule="evenodd" clip-rule="evenodd" stroke-linejoin="round" stroke-miterlimit="2"><g transform="matrix(1,0,0,1,-288,-192)"><path d="M308.179,194L295,194C293.343,194 292,195.343 292,197L292,219C292,220.657 293.343,222 295,222L313,222C313.796,222 314.559,221.684 315.121,221.121C315.684,220.559 316,219.796 316,219L316,201.846C316,201.053 315.686,200.292 315.127,199.73C313.983,198.58 311.453,196.037 310.305,194.884C309.742,194.318 308.977,194 308.179,194ZM307,196L307,198C307,198.796 306.684,199.559 306.121,200.121C305.559,200.684 304.796,201 304,201C302.512,201 300.488,201 299,201C298.204,201 297.441,200.684 296.879,200.121C296.316,199.559 296,198.796 296,198L296,196L295,196C294.448,196 294,196.448 294,197C294,197 294,219 294,219C294,219.552 294.448,220 295,220L296,220L296,215C296,213.343 297.343,212 299,212L309,212C310.657,212 312,213.343 312,215L312,220L313,220C313.265,220 313.52,219.895 313.707,219.707C313.895,219.52 314,219.265 314,219L314,201.846C314,201.581 313.895,201.328 313.709,201.14L308.888,196.295C308.7,196.106 308.445,196 308.179,196L307,196ZM310,215L310,220C310,220 298,220 298,220C298,220 298,215 298,215C298,214.448 298.448,214 299,214C299,214 309,214 309,214C309.552,214 310,214.448 310,215ZM305,196L305,198C305,198.265 304.895,198.52 304.707,198.707C304.52,198.895 304.265,199 304,199L299,199C298.735,199 298.48,198.895 298.293,198.707C298.105,198.52 298,198.265 298,198L298,196L305,196Z"/></g><text x="0" y="47" fill="#000000" font-size="5px" font-weight="bold" font-family="'Helvetica Neue', Helvetica, Arial-Unicode, Arial, Sans-serif">Created by Yudhi Restu Pebriyanto</text><text x="0" y="52" fill="#000000" font-size="5px" font-weight="bold" font-family="'Helvetica Neue', Helvetica, Arial-Unicode, Arial, Sans-serif">from the Noun Project</text></svg>